{
	"asset":{
		"generator":"Khronos glTF Blender I/O v5.0.21",
		"version":"2.0"
	},
	"scene":0,
	"scenes":[
		{
			"name":"Scene",
			"nodes":[
				0,
				1,
				2,
				3,
				4,
				5,
				6,
				7,
				8,
				9,
				10,
				11,
				12
			]
		}
	],
	"nodes":[
		{
			"mesh":0,
			"name":"Walls10",
			"translation":[
				-6.622511386871338,
				0,
				-5
			]
		},
		{
			"mesh":1,
			"name":"Wall8",
			"translation":[
				-3.522512435913086,
				0,
				0
			]
		},
		{
			"mesh":2,
			"name":"Wall2",
			"translation":[
				6.476953506469727,
				1,
				-0.0030716657638549805
			]
		},
		{
			"mesh":3,
			"name":"Walls3",
			"rotation":[
				0,
				0.7071065902709961,
				0,
				0.7071070671081543
			],
			"translation":[
				5.657007217407227,
				0.9013593196868896,
				5.104382514953613
			]
		},
		{
			"mesh":4,
			"name":"Walls12",
			"translation":[
				-6.622511386871338,
				0,
				-2
			]
		},
		{
			"mesh":5,
			"name":"Pilar7",
			"translation":[
				-3.522512435913086,
				0,
				-5
			]
		},
		{
			"mesh":6,
			"name":"Walls1",
			"rotation":[
				0,
				-0.7071067094802856,
				0,
				0.7071068286895752
			],
			"translation":[
				6.477487564086914,
				0,
				-5
			]
		},
		{
			"mesh":7,
			"name":"Bricks1",
			"rotation":[
				0,
				-0.7071067094802856,
				0,
				0.7071068286895752
			],
			"translation":[
				6.477487564086914,
				0,
				-5
			]
		},
		{
			"mesh":8,
			"name":"Walls11",
			"translation":[
				-9.222513198852539,
				0,
				0.9999997615814209
			]
		},
		{
			"mesh":9,
			"name":"Wall5",
			"translation":[
				1.4774876832962036,
				0,
				0
			]
		},
		{
			"mesh":10,
			"name":"Walls6",
			"rotation":[
				0,
				-0.7071067094802856,
				0,
				0.7071068286895752
			],
			"translation":[
				0.517202615737915,
				1,
				4.594088077545166
			]
		},
		{
			"mesh":11,
			"name":"Wall7",
			"translation":[
				-3.522512435913086,
				0,
				-5
			]
		},
		{
			"mesh":12,
			"name":"Wall9",
			"translation":[
				-3.522512435913086,
				0,
				4.599999904632568
			]
		}
	],
	"materials":[
		{
			"doubleSided":true,
			"name":"Estructura1",
			"pbrMetallicRoughness":{
				"baseColorTexture":{
					"index":0
				},
				"metallicFactor":0,
				"metallicRoughnessTexture":{
					"index":1
				}
			}
		},
		{
			"doubleSided":true,
			"name":"Material.001",
			"pbrMetallicRoughness":{
				"baseColorTexture":{
					"index":2
				},
				"metallicFactor":0,
				"metallicRoughnessTexture":{
					"index":3
				}
			}
		}
	],
	"meshes":[
		{
			"name":"Cubo.019",
			"primitives":[
				{
					"attributes":{
						"POSITION":0,
						"NORMAL":1,
						"TEXCOORD_0":2
					},
					"indices":3,
					"material":0
				}
			]
		},
		{
			"name":"Cubo.002",
			"primitives":[
				{
					"attributes":{
						"POSITION":4,
						"NORMAL":5,
						"TEXCOORD_0":6
					},
					"indices":7,
					"material":0
				}
			]
		},
		{
			"name":"Cubo.085",
			"primitives":[
				{
					"attributes":{
						"POSITION":8,
						"NORMAL":9,
						"TEXCOORD_0":10
					},
					"indices":11,
					"material":0
				}
			]
		},
		{
			"name":"Cubo.090",
			"primitives":[
				{
					"attributes":{
						"POSITION":12,
						"NORMAL":13,
						"TEXCOORD_0":14
					},
					"indices":15,
					"material":0
				}
			]
		},
		{
			"name":"Cubo.078",
			"primitives":[
				{
					"attributes":{
						"POSITION":16,
						"NORMAL":17,
						"TEXCOORD_0":18
					},
					"indices":19,
					"material":0
				}
			]
		},
		{
			"name":"Cilindro.005",
			"primitives":[
				{
					"attributes":{
						"POSITION":20,
						"NORMAL":21,
						"TEXCOORD_0":22
					},
					"indices":23,
					"material":1
				}
			]
		},
		{
			"name":"Cubo.089",
			"primitives":[
				{
					"attributes":{
						"POSITION":24,
						"NORMAL":25,
						"TEXCOORD_0":26
					},
					"indices":27,
					"material":0
				}
			]
		},
		{
			"name":"Cubo.088",
			"primitives":[
				{
					"attributes":{
						"POSITION":28,
						"NORMAL":29,
						"TEXCOORD_0":30
					},
					"indices":31,
					"material":0
				}
			]
		},
		{
			"name":"Cubo.080",
			"primitives":[
				{
					"attributes":{
						"POSITION":32,
						"NORMAL":33,
						"TEXCOORD_0":34
					},
					"indices":35,
					"material":0
				}
			]
		},
		{
			"name":"Cubo.007",
			"primitives":[
				{
					"attributes":{
						"POSITION":36,
						"NORMAL":37,
						"TEXCOORD_0":38
					},
					"indices":39,
					"material":0
				}
			]
		},
		{
			"name":"Cubo.082",
			"primitives":[
				{
					"attributes":{
						"POSITION":40,
						"NORMAL":41,
						"TEXCOORD_0":42
					},
					"indices":43,
					"material":0
				}
			]
		},
		{
			"name":"Cubo.010",
			"primitives":[
				{
					"attributes":{
						"POSITION":44,
						"NORMAL":45,
						"TEXCOORD_0":46
					},
					"indices":47,
					"material":0
				}
			]
		},
		{
			"name":"Cubo.003",
			"primitives":[
				{
					"attributes":{
						"POSITION":48,
						"NORMAL":49,
						"TEXCOORD_0":50
					},
					"indices":51,
					"material":0
				}
			]
		}
	],
	"textures":[
		{
			"sampler":0,
			"source":0
		},
		{
			"sampler":0,
			"source":1
		},
		{
			"sampler":0,
			"source":2
		},
		{
			"sampler":0,
			"source":3
		}
	],
	"images":[
		{
			"mimeType":"image/png",
			"name":"Walls1Color",
			"uri":"Walls1Color.png"
		},
		{
			"mimeType":"image/png",
			"name":"Wall1Roughness",
			"uri":"Wall1Roughness.png"
		},
		{
			"mimeType":"image/png",
			"name":"Pilar1Color",
			"uri":"Pilar1Color.png"
		},
		{
			"mimeType":"image/png",
			"name":"Pilar1Roughness",
			"uri":"Pilar1Roughness.png"
		}
	],
	"accessors":[
		{
			"bufferView":0,
			"componentType":5126,
			"count":3794,
			"max":[
				0.05228080600500107,
				2,
				2.703685760498047
			],
			"min":[
				-2.6533493995666504,
				0,
				-0.00984644889831543
			],
			"type":"VEC3"
		},
		{
			"bufferView":1,
			"componentType":5126,
			"count":3794,
			"type":"VEC3"
		},
		{
			"bufferView":2,
			"componentType":5126,
			"count":3794,
			"type":"VEC2"
		},
		{
			"bufferView":3,
			"componentType":5123,
			"count":12714,
			"type":"SCALAR"
		},
		{
			"bufferView":4,
			"componentType":5126,
			"count":2107,
			"max":[
				0.05228080600500107,
				2,
				2.0041167736053467
			],
			"min":[
				-0.05334837734699249,
				0,
				-2.0102601051330566
			],
			"type":"VEC3"
		},
		{
			"bufferView":5,
			"componentType":5126,
			"count":2107,
			"type":"VEC3"
		},
		{
			"bufferView":6,
			"componentType":5126,
			"count":2107,
			"type":"VEC2"
		},
		{
			"bufferView":7,
			"componentType":5123,
			"count":6960,
			"type":"SCALAR"
		},
		{
			"bufferView":8,
			"componentType":5126,
			"count":4218,
			"max":[
				2.010793685913086,
				1,
				2.007188320159912
			],
			"min":[
				-2.0035829544067383,
				-1,
				-2.007188320159912
			],
			"type":"VEC3"
		},
		{
			"bufferView":9,
			"componentType":5126,
			"count":4218,
			"type":"VEC3"
		},
		{
			"bufferView":10,
			"componentType":5126,
			"count":4218,
			"type":"VEC2"
		},
		{
			"bufferView":11,
			"componentType":5123,
			"count":13920,
			"type":"SCALAR"
		},
		{
			"bufferView":12,
			"componentType":5126,
			"count":1679,
			"max":[
				1.0529383420944214,
				0.9013593196868896,
				1.1069729328155518
			],
			"min":[
				-1.0529382228851318,
				-0.9013592600822449,
				-1.1069730520248413
			],
			"type":"VEC3"
		},
		{
			"bufferView":13,
			"componentType":5126,
			"count":1679,
			"type":"VEC3"
		},
		{
			"bufferView":14,
			"componentType":5126,
			"count":1679,
			"type":"VEC2"
		},
		{
			"bufferView":15,
			"componentType":5123,
			"count":5754,
			"type":"SCALAR"
		},
		{
			"bufferView":16,
			"componentType":5126,
			"count":1681,
			"max":[
				-0.5474728345870972,
				1.8027186393737793,
				7.703685760498047
			],
			"min":[
				-2.6533493995666504,
				5.960464477539063e-08,
				5.489739894866943
			],
			"type":"VEC3"
		},
		{
			"bufferView":17,
			"componentType":5126,
			"count":1681,
			"type":"VEC3"
		},
		{
			"bufferView":18,
			"componentType":5126,
			"count":1681,
			"type":"VEC2"
		},
		{
			"bufferView":19,
			"componentType":5123,
			"count":5754,
			"type":"SCALAR"
		},
		{
			"bufferView":20,
			"componentType":5126,
			"count":61029,
			"max":[
				11.702259063720703,
				2.997994899749756,
				12.297212600708008
			],
			"min":[
				-6.893239974975586,
				-0.049659132957458496,
				-0.8183556795120239
			],
			"type":"VEC3"
		},
		{
			"bufferView":21,
			"componentType":5126,
			"count":61029,
			"type":"VEC3"
		},
		{
			"bufferView":22,
			"componentType":5126,
			"count":61029,
			"type":"VEC2"
		},
		{
			"bufferView":23,
			"componentType":5123,
			"count":147204,
			"type":"SCALAR"
		},
		{
			"bufferView":24,
			"componentType":5126,
			"count":1678,
			"max":[
				2.0584280490875244,
				1.8027186393737793,
				1.8956141471862793
			],
			"min":[
				-0.05334837734699249,
				1.1920928955078125e-07,
				-2.0102601051330566
			],
			"type":"VEC3"
		},
		{
			"bufferView":25,
			"componentType":5126,
			"count":1678,
			"type":"VEC3"
		},
		{
			"bufferView":26,
			"componentType":5126,
			"count":1678,
			"type":"VEC2"
		},
		{
			"bufferView":27,
			"componentType":5123,
			"count":5598,
			"type":"SCALAR"
		},
		{
			"bufferView":28,
			"componentType":5126,
			"count":92114,
			"max":[
				12.270082473754883,
				2.100350856781006,
				16.866111755371094
			],
			"min":[
				-0.8227770924568176,
				-0.08061504364013672,
				-2.548306941986084
			],
			"type":"VEC3"
		},
		{
			"bufferView":29,
			"componentType":5126,
			"count":92114,
			"type":"VEC3"
		},
		{
			"bufferView":30,
			"componentType":5126,
			"count":92114,
			"type":"VEC2"
		},
		{
			"bufferView":31,
			"componentType":5125,
			"count":128970,
			"type":"SCALAR"
		},
		{
			"bufferView":32,
			"componentType":5126,
			"count":728,
			"max":[
				0.9166269302368164,
				0.39801889657974243,
				-0.2043856978416443
			],
			"min":[
				-0.889247477054596,
				1.1920928955078125e-07,
				-2.0102601051330566
			],
			"type":"VEC3"
		},
		{
			"bufferView":33,
			"componentType":5126,
			"count":728,
			"type":"VEC3"
		},
		{
			"bufferView":34,
			"componentType":5126,
			"count":728,
			"type":"VEC2"
		},
		{
			"bufferView":35,
			"componentType":5123,
			"count":2376,
			"type":"SCALAR"
		},
		{
			"bufferView":36,
			"componentType":5126,
			"count":911,
			"max":[
				0.05121318995952606,
				0.7969484925270081,
				1.8956141471862793
			],
			"min":[
				-0.05334837734699249,
				1.1920928955078125e-07,
				-2.0102601051330566
			],
			"type":"VEC3"
		},
		{
			"bufferView":37,
			"componentType":5126,
			"count":911,
			"type":"VEC3"
		},
		{
			"bufferView":38,
			"componentType":5126,
			"count":911,
			"type":"VEC2"
		},
		{
			"bufferView":39,
			"componentType":5123,
			"count":3096,
			"type":"SCALAR"
		},
		{
			"bufferView":40,
			"componentType":5126,
			"count":2111,
			"max":[
				1.0530214309692383,
				1,
				1.006981611251831
			],
			"min":[
				-1.05302095413208,
				-1,
				-1.0069818496704102
			],
			"type":"VEC3"
		},
		{
			"bufferView":41,
			"componentType":5126,
			"count":2111,
			"type":"VEC3"
		},
		{
			"bufferView":42,
			"componentType":5126,
			"count":2111,
			"type":"VEC2"
		},
		{
			"bufferView":43,
			"componentType":5123,
			"count":6960,
			"type":"SCALAR"
		},
		{
			"bufferView":44,
			"componentType":5126,
			"count":2112,
			"max":[
				2.001626491546631,
				2,
				2.0041167736053467
			],
			"min":[
				-0.05228080600500107,
				0,
				-0.10984689742326736
			],
			"type":"VEC3"
		},
		{
			"bufferView":45,
			"componentType":5126,
			"count":2112,
			"type":"VEC3"
		},
		{
			"bufferView":46,
			"componentType":5126,
			"count":2112,
			"type":"VEC2"
		},
		{
			"bufferView":47,
			"componentType":5123,
			"count":6960,
			"type":"SCALAR"
		},
		{
			"bufferView":48,
			"componentType":5126,
			"count":364,
			"max":[
				0.05121318995952606,
				0.39801889657974243,
				-0.2043856978416443
			],
			"min":[
				-0.05334837734699249,
				1.1920928955078125e-07,
				-2.0102601051330566
			],
			"type":"VEC3"
		},
		{
			"bufferView":49,
			"componentType":5126,
			"count":364,
			"type":"VEC3"
		},
		{
			"bufferView":50,
			"componentType":5126,
			"count":364,
			"type":"VEC2"
		},
		{
			"bufferView":51,
			"componentType":5123,
			"count":1188,
			"type":"SCALAR"
		}
	],
	"bufferViews":[
		{
			"buffer":0,
			"byteLength":45528,
			"byteOffset":0,
			"target":34962
		},
		{
			"buffer":0,
			"byteLength":45528,
			"byteOffset":45528,
			"target":34962
		},
		{
			"buffer":0,
			"byteLength":30352,
			"byteOffset":91056,
			"target":34962
		},
		{
			"buffer":0,
			"byteLength":25428,
			"byteOffset":121408,
			"target":34963
		},
		{
			"buffer":0,
			"byteLength":25284,
			"byteOffset":146836,
			"target":34962
		},
		{
			"buffer":0,
			"byteLength":25284,
			"byteOffset":172120,
			"target":34962
		},
		{
			"buffer":0,
			"byteLength":16856,
			"byteOffset":197404,
			"target":34962
		},
		{
			"buffer":0,
			"byteLength":13920,
			"byteOffset":214260,
			"target":34963
		},
		{
			"buffer":0,
			"byteLength":50616,
			"byteOffset":228180,
			"target":34962
		},
		{
			"buffer":0,
			"byteLength":50616,
			"byteOffset":278796,
			"target":34962
		},
		{
			"buffer":0,
			"byteLength":33744,
			"byteOffset":329412,
			"target":34962
		},
		{
			"buffer":0,
			"byteLength":27840,
			"byteOffset":363156,
			"target":34963
		},
		{
			"buffer":0,
			"byteLength":20148,
			"byteOffset":390996,
			"target":34962
		},
		{
			"buffer":0,
			"byteLength":20148,
			"byteOffset":411144,
			"target":34962
		},
		{
			"buffer":0,
			"byteLength":13432,
			"byteOffset":431292,
			"target":34962
		},
		{
			"buffer":0,
			"byteLength":11508,
			"byteOffset":444724,
			"target":34963
		},
		{
			"buffer":0,
			"byteLength":20172,
			"byteOffset":456232,
			"target":34962
		},
		{
			"buffer":0,
			"byteLength":20172,
			"byteOffset":476404,
			"target":34962
		},
		{
			"buffer":0,
			"byteLength":13448,
			"byteOffset":496576,
			"target":34962
		},
		{
			"buffer":0,
			"byteLength":11508,
			"byteOffset":510024,
			"target":34963
		},
		{
			"buffer":0,
			"byteLength":732348,
			"byteOffset":521532,
			"target":34962
		},
		{
			"buffer":0,
			"byteLength":732348,
			"byteOffset":1253880,
			"target":34962
		},
		{
			"buffer":0,
			"byteLength":488232,
			"byteOffset":1986228,
			"target":34962
		},
		{
			"buffer":0,
			"byteLength":294408,
			"byteOffset":2474460,
			"target":34963
		},
		{
			"buffer":0,
			"byteLength":20136,
			"byteOffset":2768868,
			"target":34962
		},
		{
			"buffer":0,
			"byteLength":20136,
			"byteOffset":2789004,
			"target":34962
		},
		{
			"buffer":0,
			"byteLength":13424,
			"byteOffset":2809140,
			"target":34962
		},
		{
			"buffer":0,
			"byteLength":11196,
			"byteOffset":2822564,
			"target":34963
		},
		{
			"buffer":0,
			"byteLength":1105368,
			"byteOffset":2833760,
			"target":34962
		},
		{
			"buffer":0,
			"byteLength":1105368,
			"byteOffset":3939128,
			"target":34962
		},
		{
			"buffer":0,
			"byteLength":736912,
			"byteOffset":5044496,
			"target":34962
		},
		{
			"buffer":0,
			"byteLength":515880,
			"byteOffset":5781408,
			"target":34963
		},
		{
			"buffer":0,
			"byteLength":8736,
			"byteOffset":6297288,
			"target":34962
		},
		{
			"buffer":0,
			"byteLength":8736,
			"byteOffset":6306024,
			"target":34962
		},
		{
			"buffer":0,
			"byteLength":5824,
			"byteOffset":6314760,
			"target":34962
		},
		{
			"buffer":0,
			"byteLength":4752,
			"byteOffset":6320584,
			"target":34963
		},
		{
			"buffer":0,
			"byteLength":10932,
			"byteOffset":6325336,
			"target":34962
		},
		{
			"buffer":0,
			"byteLength":10932,
			"byteOffset":6336268,
			"target":34962
		},
		{
			"buffer":0,
			"byteLength":7288,
			"byteOffset":6347200,
			"target":34962
		},
		{
			"buffer":0,
			"byteLength":6192,
			"byteOffset":6354488,
			"target":34963
		},
		{
			"buffer":0,
			"byteLength":25332,
			"byteOffset":6360680,
			"target":34962
		},
		{
			"buffer":0,
			"byteLength":25332,
			"byteOffset":6386012,
			"target":34962
		},
		{
			"buffer":0,
			"byteLength":16888,
			"byteOffset":6411344,
			"target":34962
		},
		{
			"buffer":0,
			"byteLength":13920,
			"byteOffset":6428232,
			"target":34963
		},
		{
			"buffer":0,
			"byteLength":25344,
			"byteOffset":6442152,
			"target":34962
		},
		{
			"buffer":0,
			"byteLength":25344,
			"byteOffset":6467496,
			"target":34962
		},
		{
			"buffer":0,
			"byteLength":16896,
			"byteOffset":6492840,
			"target":34962
		},
		{
			"buffer":0,
			"byteLength":13920,
			"byteOffset":6509736,
			"target":34963
		},
		{
			"buffer":0,
			"byteLength":4368,
			"byteOffset":6523656,
			"target":34962
		},
		{
			"buffer":0,
			"byteLength":4368,
			"byteOffset":6528024,
			"target":34962
		},
		{
			"buffer":0,
			"byteLength":2912,
			"byteOffset":6532392,
			"target":34962
		},
		{
			"buffer":0,
			"byteLength":2376,
			"byteOffset":6535304,
			"target":34963
		}
	],
	"samplers":[
		{
			"magFilter":9729,
			"minFilter":9987
		}
	],
	"buffers":[
		{
			"byteLength":6537680,
			"uri":"AncientRuin.bin"
		}
	]
}
